<svg aria-hidden="true" style="width:0;height:0;position:absolute;overflow:hidden" xmlns="http://www.w3.org/2000/svg"><defs><symbol id="icon-comment" viewBox="0 0 32 32"><path d="M28 2a2 2 0 0 1 2 2v16a2 2 0 0 1-2 2H8.828A3.988 3.988 0 0 0 6 23.172l-4 4V4a2 2 0 0 1 2-2h24zM4 0a4 4 0 0 0-4 4v25.586a1 1 0 0 0 1.708.706l5.706-5.706A1.994 1.994 0 0 1 8.828 24H28a4 4 0 0 0 4-4V4a4 4 0 0 0-4-4H4z"/></symbol><symbol id="icon-download" viewBox="0 0 32 32"><path d="M15.292 21.708a.998.998 0 0 0 1.416 0l4-4a1 1 0 1 0-1.416-1.416L17 18.586V11a1 1 0 0 0-2 0v7.586l-2.292-2.294a1 1 0 1 0-1.416 1.416l4 4z"/><path d="M8.812 6.684A11.006 11.006 0 0 1 15.998 4H16c5.38 0 9.846 4 10.332 9.158 3.184.45 5.668 3.116 5.668 6.388C32 23.138 29.004 26 25.374 26H7.562C3.416 26 0 22.732 0 18.636c0-3.526 2.532-6.446 5.884-7.186.286-1.726 1.396-3.446 2.928-4.766zm1.306 1.514c-1.514 1.306-2.306 2.88-2.306 4.112v.896l-.89.098C4.128 13.61 2 15.904 2 18.636 2 21.57 4.46 24 7.562 24h17.812C27.96 24 30 21.976 30 19.546c0-2.432-2.04-4.456-4.626-4.456h-1v-1C24.376 9.65 20.656 6 16 6a9.022 9.022 0 0 0-5.893 2.21l.011-.01z"/></symbol><symbol id="icon-views" viewBox="0 0 32 32"><path d="M32 16S26 5 16 5 0 16 0 16s6 11 16 11 16-11 16-11zM2.346 16a26.46 26.46 0 0 1 3.321-4.087l-.001.001C8.24 9.336 11.76 7 16 7s7.758 2.336 10.336 4.914a26.397 26.397 0 0 1 3.26 3.99l.06.096c-.116.174-.244.366-.39.576-.67.96-1.66 2.24-2.93 3.51C23.758 22.664 20.238 25 16 25c-4.24 0-7.758-2.336-10.336-4.914a26.397 26.397 0 0 1-3.26-3.99L2.344 16z"/><path d="M16 11a5 5 0 0 0 0 10 5 5 0 0 0 0-10zm-7 5a7 7 0 1 1 14 0 7 7 0 1 1-14 0z"/></symbol><symbol id="icon-search" viewBox="0 0 32 32"><path d="M23.484 20.688a12.901 12.901 0 0 0 2.514-7.684c0-7.18-5.82-13-13-13s-13 5.82-13 13 5.82 13 13 13c2.894 0 5.567-.946 7.727-2.545l-.035.025h-.002c.06.08.124.156.196.23l7.7 7.7a2 2 0 0 0 2.83-2.828l-7.7-7.7a2 2 0 0 0-.225-.196l-.005-.004zM24 13c0 6.075-4.925 11-11 11S2 19.075 2 13 6.925 2 13 2s11 4.925 11 11z"/></symbol><symbol id="icon-like" viewBox="0 0 32 32"><path d="M5.732 29.7c-.156.888.72 1.582 1.492 1.186l8.78-4.512 8.778 4.512c.772.396 1.648-.298 1.492-1.184l-1.66-9.46 7.044-6.712c.66-.628.32-1.776-.564-1.9l-9.796-1.392-4.368-8.654a1.026 1.026 0 0 0-1.851-.006l-.003.006-4.368 8.656-9.796 1.392c-.882.124-1.224 1.272-.566 1.9l7.046 6.712-1.66 9.46zm9.81-5.534L8.17 27.954l1.388-7.914a1.129 1.129 0 0 0-.325-1.01l-5.812-5.54 8.104-1.152c.347-.054.634-.271.783-.57l.003-.006 3.69-7.316 3.694 7.316c.152.305.439.522.78.575l.006.001 8.104 1.15-5.812 5.54a1.128 1.128 0 0 0-.325 1.019l-.001-.007 1.388 7.914-7.372-3.788a1 1 0 0 0-.928.002l.006-.003z"/></symbol><symbol id="icon-top" viewBox="0 0 32 32"><path d="M16 1 1 16h9v16h12V16h9z"/></symbol></defs></svg>