<svg aria-hidden="true" style="position: absolute; width: 0; height: 0; overflow: hidden;" version="1.1" xmlns="http://www.w3.org/2000/svg" xmlns:xlink="http://www.w3.org/1999/xlink">
<defs>
<symbol id="icon-comment" viewBox="0 0 32 32">
<path d="M28 2c1.105 0 2 0.895 2 2v0 16c0 1.105-0.895 2-2 2v0h-19.172c-1.104 0-2.104 0.448-2.828 1.172l-4 4v-23.172c0-1.105 0.895-2 2-2v0h24zM4 0c-2.209 0-4 1.791-4 4v0 25.586c0 0.552 0.448 1 1 1 0.277 0 0.527-0.112 0.708-0.294l5.706-5.706c0.362-0.362 0.862-0.586 1.414-0.586h19.172c2.209 0 4-1.791 4-4v0-16c0-2.209-1.791-4-4-4v0h-24z"></path>
</symbol>
<symbol id="icon-download" viewBox="0 0 32 32">
<path d="M15.292 21.708c0.181 0.181 0.431 0.294 0.708 0.294s0.527-0.112 0.708-0.294l4-4c0.181-0.181 0.293-0.431 0.293-0.708 0-0.553-0.448-1.001-1.001-1.001-0.276 0-0.527 0.112-0.708 0.293v0l-2.292 2.294v-7.586c0-0.552-0.448-1-1-1s-1 0.448-1 1v0 7.586l-2.292-2.294c-0.181-0.181-0.431-0.293-0.708-0.293-0.553 0-1.001 0.448-1.001 1.001 0 0.276 0.112 0.527 0.293 0.708v0l4 4z"></path>
<path d="M8.812 6.684c1.917-1.66 4.433-2.675 7.186-2.684h0.002c5.38 0 9.846 4 10.332 9.158 3.184 0.45 5.668 3.116 5.668 6.388 0 3.592-2.996 6.454-6.626 6.454h-17.812c-4.146 0-7.562-3.268-7.562-7.364 0-3.526 2.532-6.446 5.884-7.186 0.286-1.726 1.396-3.446 2.928-4.766zM10.118 8.198c-1.514 1.306-2.306 2.88-2.306 4.112v0.896l-0.89 0.098c-2.794 0.306-4.922 2.6-4.922 5.332 0 2.934 2.46 5.364 5.562 5.364h17.812c2.586 0 4.626-2.024 4.626-4.454 0-2.432-2.040-4.456-4.626-4.456h-1v-1c0.002-4.44-3.718-8.090-8.374-8.090-2.255 0.009-4.313 0.841-5.893 2.21l0.011-0.010z"></path>
</symbol>
<symbol id="icon-views" viewBox="0 0 32 32">
<path d="M32 16s-6-11-16-11-16 11-16 11 6 11 16 11 16-11 16-11zM2.346 16c1.016-1.532 2.109-2.869 3.321-4.087l-0.001 0.001c2.574-2.578 6.094-4.914 10.334-4.914s7.758 2.336 10.336 4.914c1.211 1.217 2.304 2.554 3.26 3.99l0.060 0.096c-0.116 0.174-0.244 0.366-0.39 0.576-0.67 0.96-1.66 2.24-2.93 3.51-2.578 2.578-6.098 4.914-10.336 4.914-4.24 0-7.758-2.336-10.336-4.914-1.211-1.217-2.304-2.554-3.26-3.99l-0.060-0.096z"></path>
<path d="M16 11c-2.761 0-5 2.239-5 5s2.239 5 5 5v0c2.761 0 5-2.239 5-5s-2.239-5-5-5v0zM9 16c0-3.866 3.134-7 7-7s7 3.134 7 7v0c0 3.866-3.134 7-7 7s-7-3.134-7-7v0z"></path>
</symbol>
<symbol id="icon-search" viewBox="0 0 32 32">
<path d="M23.484 20.688c1.571-2.123 2.514-4.794 2.514-7.684 0-7.18-5.82-13-13-13s-13 5.82-13 13c0 7.18 5.82 13 13 13 2.894 0 5.567-0.946 7.727-2.545l-0.035 0.025h-0.002c0.060 0.080 0.124 0.156 0.196 0.23l7.7 7.7c0.362 0.362 0.862 0.586 1.415 0.586 1.105 0 2-0.896 2-2 0-0.552-0.224-1.052-0.585-1.414l-7.7-7.7c-0.070-0.071-0.145-0.136-0.225-0.196l-0.005-0.004zM24 13c0 6.075-4.925 11-11 11s-11-4.925-11-11v0c0-6.075 4.925-11 11-11s11 4.925 11 11v0z"></path>
</symbol>
<symbol id="icon-like" viewBox="0 0 32 32">
<path d="M5.732 29.7c-0.156 0.888 0.72 1.582 1.492 1.186l8.78-4.512 8.778 4.512c0.772 0.396 1.648-0.298 1.492-1.184l-1.66-9.46 7.044-6.712c0.66-0.628 0.32-1.776-0.564-1.9l-9.796-1.392-4.368-8.654c-0.169-0.349-0.52-0.586-0.927-0.586s-0.758 0.237-0.924 0.58l-0.003 0.006-4.368 8.656-9.796 1.392c-0.882 0.124-1.224 1.272-0.566 1.9l7.046 6.712-1.66 9.46zM15.542 24.166l-7.372 3.788 1.388-7.914c0.011-0.060 0.018-0.128 0.018-0.199 0-0.318-0.132-0.606-0.343-0.811l-0-0-5.812-5.54 8.104-1.152c0.347-0.054 0.634-0.271 0.783-0.57l0.003-0.006 3.69-7.316 3.694 7.316c0.152 0.305 0.439 0.522 0.78 0.575l0.006 0.001 8.104 1.15-5.812 5.54c-0.212 0.206-0.344 0.493-0.344 0.812 0 0.071 0.006 0.14 0.019 0.207l-0.001-0.007 1.388 7.914-7.372-3.788c-0.134-0.070-0.293-0.112-0.461-0.112s-0.327 0.041-0.467 0.114l0.006-0.003z"></path>
</symbol>
<symbol id="icon-top" viewBox="0 0 32 32">
<path d="M16 1l-15 15h9v16h12v-16h9z"></path>
</symbol>
</defs>
</svg>
